<?xml version="1.0" encoding="UTF-8"?>
<svg width="800" height="500" viewBox="0 0 800 500" xmlns="http://www.w3.org/2000/svg">
  <defs>
    <!-- Deep Blue Gradient Background -->
    <linearGradient id="deepBlueGradient" x1="0%" y1="0%" x2="0%" y2="100%">
      <stop offset="0%" style="stop-color:#1a237e;stop-opacity:1" />
      <stop offset="100%" style="stop-color:#0d47a1;stop-opacity:1" />
    </linearGradient>
    
    <!-- Cloud Pattern -->
    <pattern id="cloudPattern" x="0" y="0" width="100" height="100" patternUnits="userSpaceOnUse">
      <circle cx="30" cy="30" r="15" fill="#2196f3" opacity="0.1"/>
      <circle cx="50" cy="30" r="20" fill="#2196f3" opacity="0.1"/>
      <circle cx="70" cy="30" r="15" fill="#2196f3" opacity="0.1"/>
    </pattern>

    <!-- Additional Pattern -->
    <pattern id="dotPattern" x="0" y="0" width="40" height="40" patternUnits="userSpaceOnUse">
      <circle cx="20" cy="20" r="1" fill="#90caf9" opacity="0.3"/>
      <circle cx="0" cy="0" r="1" fill="#90caf9" opacity="0.3"/>
      <circle cx="40" cy="40" r="1" fill="#90caf9" opacity="0.3"/>
    </pattern>

    <!-- Glowing Effect -->
    <filter id="glow" x="-50%" y="-50%" width="200%" height="200%">
      <feGaussianBlur stdDeviation="5" result="blur"/>
      <feComposite in="SourceGraphic" in2="blur" operator="over"/>
    </filter>

    <!-- Stronger Glow -->
    <filter id="strongGlow" x="-50%" y="-50%" width="200%" height="200%">
      <feGaussianBlur stdDeviation="8" result="blur"/>
      <feComposite in="SourceGraphic" in2="blur" operator="over"/>
    </filter>

    <!-- Text Glow -->
    <filter id="textGlow" x="-50%" y="-50%" width="200%" height="200%">
      <feGaussianBlur stdDeviation="3" result="blur"/>
      <feComposite in="SourceGraphic" in2="blur" operator="over"/>
    </filter>
  </defs>

  <!-- Main background -->
  <rect x="0" y="0" width="800" height="500" fill="url(#deepBlueGradient)"/>

  <!-- Pattern overlays -->
  <rect x="0" y="0" width="800" height="500" fill="url(#cloudPattern)"/>
  <rect x="0" y="0" width="800" height="500" fill="url(#dotPattern)"/>

  <!-- Cloud shapes -->
  <g opacity="0.15">
    <!-- Large cloud -->
    <g transform="translate(400, 100)">
      <circle cx="0" cy="0" r="40" fill="#2196f3" filter="url(#glow)"/>
      <circle cx="40" cy="0" r="50" fill="#64b5f6" filter="url(#glow)"/>
      <circle cx="80" cy="0" r="40" fill="#2196f3" filter="url(#glow)"/>
      <circle cx="40" cy="-30" r="30" fill="#64b5f6" filter="url(#glow)"/>
    </g>
    
    <!-- Medium cloud -->
    <g transform="translate(200, 200)">
      <circle cx="0" cy="0" r="30" fill="#1976d2" filter="url(#glow)"/>
      <circle cx="30" cy="0" r="35" fill="#2196f3" filter="url(#glow)"/>
      <circle cx="60" cy="0" r="30" fill="#1976d2" filter="url(#glow)"/>
      <circle cx="30" cy="-20" r="25" fill="#2196f3" filter="url(#glow)"/>
    </g>
    
    <!-- Small cloud -->
    <g transform="translate(600, 300)">
      <circle cx="0" cy="0" r="20" fill="#42a5f5" filter="url(#glow)"/>
      <circle cx="20" cy="0" r="25" fill="#64b5f6" filter="url(#glow)"/>
      <circle cx="40" cy="0" r="20" fill="#42a5f5" filter="url(#glow)"/>
      <circle cx="20" cy="-15" r="15" fill="#64b5f6" filter="url(#glow)"/>
    </g>
    
    <!-- Floating cloud -->
    <g transform="translate(150, 350)">
      <circle cx="0" cy="0" r="25" fill="#90caf9" filter="url(#glow)"/>
      <circle cx="25" cy="0" r="30" fill="#bbdefb" filter="url(#glow)"/>
      <circle cx="50" cy="0" r="25" fill="#90caf9" filter="url(#glow)"/>
      <circle cx="25" cy="-20" r="20" fill="#bbdefb" filter="url(#glow)"/>
    </g>
    
    <!-- Drifting cloud -->
    <g transform="translate(550, 150)">
      <circle cx="0" cy="0" r="35" fill="#29b6f6" filter="url(#glow)"/>
      <circle cx="35" cy="0" r="40" fill="#4fc3f7" filter="url(#glow)"/>
      <circle cx="70" cy="0" r="35" fill="#29b6f6" filter="url(#glow)"/>
      <circle cx="35" cy="-25" r="30" fill="#4fc3f7" filter="url(#glow)"/>
    </g>
  </g>

  <!-- Subtle light beams -->
  <g opacity="0.1">
    <path d="M0 0 L800 500" stroke="#e3f2fd" stroke-width="100"/>
    <path d="M800 0 L0 500" stroke="#bbdefb" stroke-width="80"/>
  </g>

  <!-- Additional light effects -->
  <g opacity="0.05">
    <!-- Radial gradient circles -->
    <circle cx="100" cy="100" r="150" fill="#e3f2fd"/>
    <circle cx="700" cy="400" r="120" fill="#bbdefb"/>
    
    <!-- Glowing lines -->
    <path d="M0 250 L800 250" stroke="#e3f2fd" stroke-width="2" opacity="0.2"/>
    <path d="M400 0 L400 500" stroke="#bbdefb" stroke-width="2" opacity="0.2"/>
  </g>

  <!-- INCO Text -->
  <g filter="url(#textGlow)">
    <text x="400" y="250" 
          font-family="Arial, sans-serif" 
          font-size="120" 
          font-weight="bold" 
          fill="#2196f3" 
          text-anchor="middle" 
          opacity="0.8">INCO</text>
    <text x="400" y="250" 
          font-family="Arial, sans-serif" 
          font-size="120" 
          font-weight="bold" 
          fill="#64b5f6" 
          text-anchor="middle" 
          opacity="0.4">INCO</text>
  </g>
</svg> 