<?xml version="1.0" encoding="UTF-8"?>
<svg width="800" height="500" viewBox="0 0 800 500" xmlns="http://www.w3.org/2000/svg">
  <defs>
    <!-- Deep Blue Gradient Background -->
    <linearGradient id="deepBlueGradient" x1="0%" y1="0%" x2="0%" y2="100%">
      <stop offset="0%" style="stop-color:#1a237e;stop-opacity:1" />
      <stop offset="100%" style="stop-color:#0d47a1;stop-opacity:1" />
    </linearGradient>
    
    <!-- Cloud Pattern -->
    <pattern id="cloudPattern" x="0" y="0" width="100" height="100" patternUnits="userSpaceOnUse">
      <circle cx="30" cy="30" r="15" fill="#2196f3" opacity="0.1"/>
      <circle cx="50" cy="30" r="20" fill="#2196f3" opacity="0.1"/>
      <circle cx="70" cy="30" r="15" fill="#2196f3" opacity="0.1"/>
    </pattern>

    <!-- Additional Pattern -->
    <pattern id="dotPattern" x="0" y="0" width="40" height="40" patternUnits="userSpaceOnUse">
      <circle cx="20" cy="20" r="1" fill="#90caf9" opacity="0.3"/>
      <circle cx="0" cy="0" r="1" fill="#90caf9" opacity="0.3"/>
      <circle cx="40" cy="40" r="1" fill="#90caf9" opacity="0.3"/>
    </pattern>

    <!-- Glowing Effect -->
    <filter id="glow" x="-50%" y="-50%" width="200%" height="200%">
      <feGaussianBlur stdDeviation="5" result="blur"/>
      <feComposite in="SourceGraphic" in2="blur" operator="over"/>
    </filter>

    <!-- Stronger Glow -->
    <filter id="strongGlow" x="-50%" y="-50%" width="200%" height="200%">
      <feGaussianBlur stdDeviation="8" result="blur"/>
      <feComposite in="SourceGraphic" in2="blur" operator="over"/>
    </filter>

    <!-- Text Glow -->
    <filter id="textGlow" x="-50%" y="-50%" width="200%" height="200%">
      <feGaussianBlur stdDeviation="3" result="blur"/>
      <feComposite in="SourceGraphic" in2="blur" operator="over"/>
    </filter>

    <!-- Sky gradient -->
    <linearGradient id="skyGradient" x1="0%" y1="0%" x2="0%" y2="100%">
      <stop offset="0%" style="stop-color:#0f1c4e;stop-opacity:1" />
      <stop offset="100%" style="stop-color:#052a6b;stop-opacity:1" />
    </linearGradient>
    <pattern id="gridPattern" width="40" height="40" patternUnits="userSpaceOnUse">
      <path d="M 40 0 L 0 0 0 40" fill="none" stroke="rgba(255,255,255,0.08)" stroke-width="1.5"/>
    </pattern>
    <pattern id="dotsPattern" width="20" height="20" patternUnits="userSpaceOnUse">
      <circle cx="10" cy="10" r="0.8" fill="rgba(255,255,255,0.15)"/>
    </pattern>
    <linearGradient id="cloudGradient" x1="0%" y1="0%" x2="100%" y2="100%">
      <stop offset="0%" style="stop-color:#b3e0ff;stop-opacity:0.4" />
      <stop offset="100%" style="stop-color:#e0f2ff;stop-opacity:0.3" />
    </linearGradient>

    <!-- New random design patterns -->
    <pattern id="randomLines" x="0" y="0" width="100" height="100" patternUnits="userSpaceOnUse">
      <line x1="0" y1="0" x2="100" y2="100" stroke="rgba(255,255,255,0.08)" stroke-width="1.2"/>
      <line x1="100" y1="0" x2="0" y2="100" stroke="rgba(255,255,255,0.08)" stroke-width="1.2"/>
    </pattern>

    <pattern id="randomCircles" x="0" y="0" width="50" height="50" patternUnits="userSpaceOnUse">
      <circle cx="5" cy="5" r="1.2" fill="rgba(255,255,255,0.08)"/>
      <circle cx="25" cy="25" r="1.8" fill="rgba(255,255,255,0.08)"/>
      <circle cx="45" cy="45" r="1" fill="rgba(255,255,255,0.08)"/>
    </pattern>

    <!-- Additional texture pattern for depth -->
    <pattern id="texturePattern" x="0" y="0" width="20" height="20" patternUnits="userSpaceOnUse">
      <path d="M0 10 L10 0 L20 10 M20 10 L10 20 L0 10" fill="none" stroke="rgba(255,255,255,0.01)" stroke-width="0.5"/>
    </pattern>
  </defs>

  <!-- Main background -->
  <rect x="0" y="0" width="800" height="500" fill="url(#deepBlueGradient)"/>

  <!-- Pattern overlays -->
  <rect x="0" y="0" width="800" height="500" fill="url(#cloudPattern)"/>
  <rect x="0" y="0" width="800" height="500" fill="url(#dotPattern)"/>

  <!-- Cloud shapes -->
  <g opacity="0.15">
    <!-- Large cloud -->
    <g transform="translate(400, 100)">
      <circle cx="0" cy="0" r="40" fill="#2196f3" filter="url(#glow)"/>
      <circle cx="40" cy="0" r="50" fill="#64b5f6" filter="url(#glow)"/>
      <circle cx="80" cy="0" r="40" fill="#2196f3" filter="url(#glow)"/>
      <circle cx="40" cy="-30" r="30" fill="#64b5f6" filter="url(#glow)"/>
    </g>
    
    <!-- Medium cloud -->
    <g transform="translate(200, 200)">
      <circle cx="0" cy="0" r="30" fill="#1976d2" filter="url(#glow)"/>
      <circle cx="30" cy="0" r="35" fill="#2196f3" filter="url(#glow)"/>
      <circle cx="60" cy="0" r="30" fill="#1976d2" filter="url(#glow)"/>
      <circle cx="30" cy="-20" r="25" fill="#2196f3" filter="url(#glow)"/>
    </g>
    
    <!-- Drifting cloud -->
    <g transform="translate(550, 150)">
      <circle cx="0" cy="0" r="35" fill="#29b6f6" filter="url(#glow)"/>
      <circle cx="35" cy="0" r="40" fill="#4fc3f7" filter="url(#glow)"/>
      <circle cx="70" cy="0" r="35" fill="#29b6f6" filter="url(#glow)"/>
      <circle cx="35" cy="-25" r="30" fill="#4fc3f7" filter="url(#glow)"/>
    </g>
  </g>

  <!-- Subtle light beams -->
  <g opacity="0.1">
    <path d="M0 0 L800 500" stroke="#e3f2fd" stroke-width="100"/>
    <path d="M800 0 L0 500" stroke="#bbdefb" stroke-width="80"/>
  </g>

  <!-- Additional light effects -->
  <g opacity="0.05">
    <!-- Radial gradient circles -->
    <circle cx="100" cy="100" r="150" fill="#e3f2fd"/>
    <circle cx="700" cy="400" r="120" fill="#bbdefb"/>
    
    <!-- Glowing lines -->
    <path d="M0 250 L800 250" stroke="#e3f2fd" stroke-width="2" opacity="0.2"/>
    <path d="M400 0 L400 500" stroke="#bbdefb" stroke-width="2" opacity="0.2"/>
  </g>

  <!-- INCO Text -->
  <g filter="url(#textGlow)">
    <text x="400" y="250" 
          font-family="Arial, sans-serif" 
          font-size="120" 
          font-weight="bold" 
          fill="#2196f3" 
          text-anchor="middle" 
          opacity="0.8">INCO</text>
    <text x="400" y="250" 
          font-family="Arial, sans-serif" 
          font-size="120" 
          font-weight="bold" 
          fill="#64b5f6" 
          text-anchor="middle" 
          opacity="0.4">INCO</text>
  </g>

  <!-- Background -->
  <rect width="800" height="500" fill="url(#skyGradient)"/>
  <rect width="800" height="500" fill="url(#gridPattern)"/>
  <rect width="800" height="500" fill="url(#dotsPattern)"/>
  <rect width="800" height="500" fill="url(#texturePattern)"/>

  <!-- Abstract shapes -->
  <g opacity="0.2">
    <circle cx="100" cy="100" r="50" fill="#673ab7"/>
    <circle cx="700" cy="150" r="70" fill="#512da8"/>
    <circle cx="400" cy="300" r="90" fill="#311b92"/>
    <circle cx="200" cy="400" r="60" fill="#4527a0"/>
    <circle cx="600" cy="350" r="80" fill="#5e35b1"/>
  </g>

  <!-- Dynamic lines -->
  <g stroke="rgba(255,255,255,0.12)" stroke-width="2">
    <line x1="0" y1="100" x2="800" y2="100"/>
    <line x1="0" y1="200" x2="800" y2="200"/>
    <line x1="0" y1="300" x2="800" y2="300"/>
    <line x1="0" y1="400" x2="800" y2="400"/>
  </g>

  <!-- Floating elements -->
  <g opacity="0.2">
    <rect x="50" y="50" width="80" height="80" fill="#673ab7" transform="rotate(45, 100, 100)"/>
    <rect x="650" y="100" width="100" height="100" fill="#512da8" transform="rotate(-30, 700, 150)"/>
    <rect x="350" y="250" width="120" height="120" fill="#311b92" transform="rotate(15, 410, 310)"/>
  </g>

  <!-- Additional patterns -->
  <g opacity="0.1">
    <path d="M 0 0 L 800 500" stroke="#673ab7" stroke-width="2"/>
    <path d="M 800 0 L 0 500" stroke="#512da8" stroke-width="2"/>
  </g>

  <!-- INCO Text -->
  <text x="50%" y="50%" font-family="Arial, sans-serif" font-size="80" font-weight="bold" fill="rgba(255,255,255,0.1)" text-anchor="middle" dominant-baseline="middle">INCO</text>

  <!-- Cloud Icons -->
  <g fill="url(#cloudGradient)" opacity="0.7">
    <circle cx="150" cy="120" r="25"/>
    <circle cx="180" cy="100" r="35"/>
    <circle cx="210" cy="110" r="30"/>

    <circle cx="600" cy="80" r="20"/>
    <circle cx="630" cy="60" r="30"/>
    <circle cx="660" cy="70" r="25"/>
  </g>

  <!-- More Subtle Designs -->
  <rect width="800" height="500" fill="url(#randomLines)"/>
  <rect width="800" height="500" fill="url(#randomCircles)"/>

  <g fill="rgba(255,255,255,0.03)">
    <circle cx="100" cy="400" r="3"/>
    <circle cx="700" cy="100" r="3.5"/>
    <circle cx="300" cy="200" r="2.8"/>
    <circle cx="500" cy="350" r="3.2"/>
  </g>
</svg> 